<svg t="1678945545599" class="icon" viewBox="0 0 1024 1024" version="1.1" xmlns="http://www.w3.org/2000/svg" p-id="2780" width="12" height="12"><path d="M776.095451 1024h217.234286a32.694857 32.694857 0 0 0 30.72-34.084571v-136.411429a32.694857 32.694857 0 0 0-30.72-34.084571H775.364023a32.694857 32.694857 0 0 0-30.72 34.084571v136.411429a33.28 33.28 0 0 0 31.451428 34.084571z m-372.297142 0h216.502857a32.768 32.768 0 0 0 31.451428-34.084571v-136.411429a32.768 32.768 0 0 0-31.451428-34.084571H403.798309a32.768 32.768 0 0 0-31.451429 34.084571v136.411429a32.768 32.768 0 0 0 31.451429 34.084571z m-373.028572 0H248.735451a32.694857 32.694857 0 0 0 30.72-34.084571v-136.411429a32.694857 32.694857 0 0 0-30.72-34.084571H30.769737a32.694857 32.694857 0 0 0-30.72 34.084571v136.411429A32.694857 32.694857 0 0 0 30.769737 1024z m745.325714-307.2h217.234286a32.694857 32.694857 0 0 0 30.72-34.084571V444.050286a32.621714 32.621714 0 0 0-30.72-34.084572H775.364023a32.621714 32.621714 0 0 0-30.72 34.084572v238.665143a32.914286 32.914286 0 0 0 31.451428 34.084571z m-372.297142 0h216.502857a32.768 32.768 0 0 0 31.451428-34.084571V444.050286a32.768 32.768 0 0 0-31.451428-34.084572H403.798309a32.768 32.768 0 0 0-31.451429 34.084572v238.665143a32.402286 32.402286 0 0 0 31.451429 34.084571z m-373.028572 0H248.735451a32.694857 32.694857 0 0 0 30.72-34.084571V444.050286a32.621714 32.621714 0 0 0-30.72-34.084572H30.769737a32.621714 32.621714 0 0 0-30.72 34.084572v238.665143a32.329143 32.329143 0 0 0 30.72 34.084571z m745.325714-409.161143h217.234286A32.694857 32.694857 0 0 0 1024.049737 273.554286V34.304a32.694857 32.694857 0 0 0-30.72-34.084571H775.364023a32.694857 32.694857 0 0 0-30.72 34.084571V273.554286a33.28 33.28 0 0 0 31.451428 34.084571z m-372.297142 0h216.502857a32.768 32.768 0 0 0 31.451428-34.084571V34.304a32.768 32.768 0 0 0-31.451428-34.084571H403.798309a32.768 32.768 0 0 0-31.451429 34.084571V273.554286a32.768 32.768 0 0 0 31.451429 34.084571z m-373.028572 0H248.735451a32.694857 32.694857 0 0 0 30.72-34.084571V34.304A32.694857 32.694857 0 0 0 248.735451 0.219429H30.769737A32.694857 32.694857 0 0 0 0.049737 34.304V273.554286a32.694857 32.694857 0 0 0 30.72 34.084571z m0 0" fill="#2d2d30" p-id="2781"></path></svg>